<svg width="164" height="49" viewBox="0 0 164 49" fill="none" xmlns="http://www.w3.org/2000/svg">
<path fill-rule="evenodd" clip-rule="evenodd" d="M91.6888 0.275517C91.6405 0.486049 91.5686 0.921485 91.5294 1.24313C91.49 1.56478 91.4062 2.07223 91.3433 2.37098C91.2677 2.73022 91.292 2.91402 91.4152 2.91402C91.5176 2.91402 91.6014 2.99372 91.6014 3.09097C91.6014 3.18822 91.5269 3.22146 91.4359 3.16465C91.2089 3.02313 91.2247 3.9478 91.4591 4.53227C91.5628 4.79093 91.6759 5.30339 91.7102 5.67099C91.7815 6.43508 92.2611 8.42879 92.4336 8.67859C92.4971 8.77048 92.5986 9.05504 92.6592 9.31085L92.7693 9.77619L92.126 9.44486C90.6302 8.67474 90.4059 9.45789 91.8813 10.2985C92.375 10.5797 93.0459 11.1321 93.3722 11.5261C93.9913 12.2737 94.323 12.3278 94.516 11.7126C94.5781 11.5143 94.8789 10.9771 95.1845 10.5187C95.4899 10.0606 95.7398 9.59056 95.7398 9.47443C95.7398 9.35847 95.8079 9.2634 95.8911 9.2634C96.1535 9.2634 95.8123 8.34708 95.5294 8.29194C95.3684 8.26069 95.1068 8.47774 94.8792 8.83147C94.4245 9.53792 94.0845 9.72055 94.0845 9.25822C94.0845 9.07726 94.0123 8.92922 93.9241 8.92922C93.836 8.92922 93.8067 8.81643 93.859 8.67859C93.9115 8.54074 93.8719 8.42795 93.7711 8.42795C93.6703 8.42795 93.5879 8.15944 93.5879 7.83128C93.5879 7.50295 93.4736 7.11915 93.3339 6.97812C93.1882 6.83108 93.1224 6.58697 93.1795 6.40535C93.2387 6.2172 93.2002 6.08871 93.0846 6.08871C92.9777 6.08871 92.9338 5.97426 92.987 5.8344C93.1103 5.51008 92.7504 3.87278 92.5203 3.7102C92.3998 3.62515 92.401 3.58672 92.5243 3.58488C92.6221 3.58355 92.711 3.33809 92.7216 3.03934C92.7324 2.74058 92.7723 2.10598 92.8102 1.62877C92.8684 0.897923 92.8232 0.712118 92.5231 0.448786C91.8933 -0.103944 91.7812 -0.127334 91.6888 0.275517ZM110.208 2.01358C110.084 2.06555 110.071 2.36212 110.168 2.96114C110.399 4.38891 110.197 6.35121 109.663 7.87489C109.399 8.62762 109.232 9.29565 109.29 9.35948C109.349 9.42347 109.229 9.38771 109.024 9.2801C108.819 9.1725 108.651 9.03081 108.649 8.96515C108.648 8.89948 108.346 8.50916 107.979 8.09762C107.438 7.49226 107.281 7.39668 107.156 7.59635C106.942 7.93838 106.93 7.89627 107.576 9.16816C107.894 9.79624 108.157 10.3941 108.16 10.4969C108.168 10.8548 109.07 11.7625 109.645 11.9925C110.243 12.2312 111.406 12.077 111.225 11.7826C111.178 11.7047 111.536 11.2753 112.022 10.8282C112.535 10.3555 112.871 9.91671 112.825 9.77987C112.771 9.62214 112.829 9.57686 113 9.64286C113.34 9.77469 113.47 9.24184 113.192 8.85754C113.006 8.60072 112.9 8.58753 112.39 8.75762C112.066 8.8654 111.759 9.02329 111.707 9.10851C111.655 9.19372 111.512 9.2634 111.391 9.2634C111.216 9.2634 111.205 9.12572 111.338 8.59488C111.467 8.08258 111.455 7.86369 111.285 7.65784C111.099 7.43076 111.108 7.35691 111.348 7.18013C111.645 6.96108 111.753 6.49407 111.466 6.67352C111.188 6.84662 111.282 6.21954 111.583 5.88286C111.793 5.64927 111.815 5.53481 111.668 5.44341C111.528 5.35569 111.514 5.16454 111.621 4.78675C111.744 4.35667 111.719 4.22215 111.495 4.09032C111.343 4.00026 111.3 3.92441 111.402 3.92157C111.652 3.91472 111.544 3.06691 111.271 2.89213C111.15 2.81511 111.119 2.75094 111.2 2.74944C111.282 2.7481 111.148 2.55896 110.902 2.32921C110.657 2.09946 110.441 1.9175 110.423 1.92468C110.405 1.93187 110.308 1.97198 110.208 2.01358ZM101.438 4.24655C101.345 4.34095 101.319 4.8855 101.376 5.54149C101.504 7.00502 101.424 9.96065 101.207 11.7878C101.046 13.1387 100.931 13.5661 100.368 14.8981C100.121 15.4824 99.6978 15.7897 99.8271 15.291C99.8693 15.1277 99.7817 14.8709 99.6323 14.72C99.4828 14.5691 99.409 14.3666 99.468 14.27C99.5273 14.1735 99.4828 13.9815 99.3694 13.8435C99.2558 13.7055 99.1727 13.3335 99.1845 13.0171C99.1967 12.6864 99.1001 12.352 98.9569 12.2311C98.82 12.1151 98.6025 11.9246 98.4733 11.8075C97.9327 11.3173 97.768 12.8747 98.2591 13.8329C98.456 14.2171 98.5452 14.9247 98.6106 16.6217C98.6625 17.9744 98.9501 18.6204 99.4998 18.6204C99.6276 18.6204 99.6862 18.6956 99.6299 18.7875C99.5737 18.8794 99.6811 18.9546 99.8685 18.9546C100.056 18.9546 100.209 18.8794 100.209 18.7875C100.209 18.6956 100.321 18.6204 100.458 18.6204C100.594 18.6204 100.706 18.5452 100.706 18.4533C100.706 18.3614 100.843 18.2862 101.012 18.2862C101.18 18.2862 101.398 18.1169 101.497 17.9102C101.596 17.7036 101.682 17.6239 101.688 17.7333C101.696 17.878 101.823 17.867 102.154 17.6925C102.405 17.5607 102.705 17.4524 102.822 17.4518C102.938 17.4512 103.074 17.3453 103.123 17.2165C103.172 17.0877 103.458 16.9358 103.759 16.8788C104.259 16.7841 105.257 16.1189 104.911 16.1104C104.829 16.1084 105.097 15.9523 105.507 15.7635L106.251 15.4201L105.755 15.0159C105.482 14.7937 105.164 14.6116 105.049 14.6111C104.835 14.6102 103.769 15.0595 102.63 15.6312L101.988 15.953L102.088 15.4487C102.144 15.1636 102.117 14.9444 102.026 14.9444C101.937 14.9444 101.865 14.8692 101.865 14.7773C101.865 14.6854 101.981 14.6102 102.123 14.6102C102.265 14.6102 102.339 14.5414 102.287 14.4574C102.236 14.3733 102.287 14.2692 102.402 14.2259C102.547 14.1711 102.509 14.0672 102.279 13.8829C101.996 13.6568 101.988 13.6176 102.224 13.6131C102.54 13.6069 102.742 12.9277 102.776 11.761C102.788 11.3427 102.848 10.9181 102.91 10.8177C102.971 10.7172 102.892 10.5846 102.733 10.5229C102.471 10.4208 102.469 10.3966 102.712 10.2586C102.922 10.1394 102.984 9.81529 102.998 8.76598C103.007 8.02861 102.949 7.42542 102.868 7.42542C102.787 7.42542 102.774 7.22442 102.839 6.9788C103.003 6.3604 102.654 5.09286 102.223 4.7403C102.026 4.57939 101.865 4.36586 101.865 4.26577C101.865 4.0397 101.653 4.03017 101.438 4.24655ZM83.9265 8.89263C83.8824 8.96431 83.95 9.62481 84.0764 10.3603C84.3098 11.7178 85.2109 13.7623 85.8022 14.2761C85.9609 14.4139 86.1352 14.6552 86.1897 14.8124C86.307 15.1508 87.4921 16.0589 88.238 16.3821C89.0422 16.7304 89.0223 16.8975 88.1634 17.0086C87.2266 17.1298 86.3637 17.0337 85.8323 16.7493C85.4971 16.5697 85.4112 16.5851 85.2114 16.8611C85.0049 17.146 85.0256 17.23 85.4002 17.6247C85.9919 18.2479 87.6001 18.5173 89.9075 18.3798C90.8822 18.3216 91.7461 18.207 91.827 18.1253C92.0301 17.9203 91.9855 15.5237 91.7711 15.1194C91.6754 14.9387 91.6102 14.7314 91.6264 14.6589C91.682 14.4086 91.3846 13.524 91.2035 13.4014C91.0863 13.3222 91.1099 13.2774 91.2703 13.275C91.4107 13.2729 91.3028 13.127 91.022 12.9394C89.9348 12.2125 89.5224 12.8003 89.8871 14.5566C90.0162 15.178 90.1008 15.784 90.0753 15.9032C90.0133 16.1922 88.3931 15.0869 87.6436 14.244C87.3322 13.8941 86.9781 13.6077 86.8565 13.6077C86.7348 13.6077 86.6353 13.528 86.6353 13.4308C86.6353 13.3335 86.7098 13.3003 86.8008 13.3571C86.8919 13.4139 86.9664 13.3845 86.9664 13.2917C86.9664 13.199 86.8359 13.0465 86.6767 12.9527C86.5174 12.859 86.4615 12.7789 86.5525 12.7748C86.6618 12.7698 86.6613 12.7255 86.5512 12.6444C86.3504 12.4967 85.8056 10.97 85.8068 10.5583C85.8073 10.3976 85.749 10.2659 85.6773 10.2659C85.6057 10.2659 85.5295 10.0216 85.5083 9.72289C85.487 9.42414 85.3451 9.08595 85.1932 8.97099C84.8872 8.73991 84.0516 8.68811 83.9265 8.89263ZM109.231 9.93175C109.287 10.0237 109.366 10.0988 109.406 10.0988C109.447 10.0988 109.479 10.0237 109.479 9.93175C109.479 9.83985 109.4 9.76466 109.304 9.76466C109.208 9.76466 109.175 9.83985 109.231 9.93175ZM118.543 11.3836C118.383 11.4257 118.253 11.562 118.253 11.6865C118.253 11.811 118.16 12.0137 118.046 12.1368C117.932 12.26 117.695 12.6224 117.518 12.9424C117.049 13.7935 115.414 15.2786 114.946 15.2786C114.829 15.2786 114.371 15.5416 113.927 15.8631C113.172 16.4108 113.034 16.4038 113.109 15.8216C113.124 15.7068 113.039 15.6079 112.922 15.6022C112.804 15.5964 112.866 15.5271 113.059 15.4482C113.36 15.3256 113.59 14.7653 113.688 13.914C113.695 13.8528 113.756 13.7462 113.825 13.6774C114.033 13.4675 113.965 13.1873 113.617 12.8095C113.203 12.3612 112.933 12.4558 112.643 13.1509C111.793 15.1864 111.558 15.7149 111.437 15.8551C111.362 15.9424 111.3 16.1244 111.3 16.2596C111.3 16.3947 111.174 16.6457 111.021 16.817C110.775 17.0915 110.768 17.2021 110.962 17.7432C111.083 18.081 111.264 18.4404 111.365 18.5418C111.589 18.7672 112.967 19.1345 113.153 19.0185C113.226 18.9724 113.287 19.0145 113.287 19.1118C113.287 19.209 113.505 19.2887 113.773 19.2887C114.04 19.2887 114.468 19.3729 114.724 19.476C115.482 19.7803 116.692 19.9176 116.886 19.7213C116.923 19.6841 116.749 19.3414 116.499 18.9599C116.197 18.5001 115.885 18.2342 115.572 18.1711C115.313 18.1188 115.063 18.0137 115.016 17.9378C114.97 17.8618 114.822 17.8419 114.689 17.8937C114.319 18.0367 114.398 17.6551 114.781 17.4482C114.967 17.3482 115.066 17.1831 115.002 17.0798C114.926 16.9555 114.986 16.9309 115.182 17.0066C115.362 17.0765 115.707 16.9764 116.075 16.7471C116.789 16.3012 117.922 15.2191 117.922 14.9818C117.922 14.8889 118.038 14.768 118.18 14.7128C118.323 14.6577 118.393 14.5364 118.336 14.4432C118.279 14.3501 118.395 14.043 118.594 13.7608C118.862 13.3813 118.907 13.199 118.77 13.0602C118.5 12.788 118.541 12.5285 118.817 12.7597C119.008 12.9191 119.072 12.8597 119.163 12.4393C119.228 12.142 119.2 11.8309 119.097 11.7057C118.998 11.5861 118.967 11.4389 119.027 11.3784C119.144 11.2604 119.004 11.262 118.543 11.3836ZM101.203 15.7799C101.203 15.8718 101.277 15.947 101.368 15.947C101.459 15.947 101.534 15.8718 101.534 15.7799C101.534 15.688 101.459 15.6128 101.368 15.6128C101.277 15.6128 101.203 15.688 101.203 15.7799ZM0.141475 18.4546C0.0848617 18.5472 0.0232825 19.4202 0.00490788 20.3947C-0.0316758 22.3212 0.129391 22.8352 0.720523 22.6793C0.903276 22.631 1.05276 22.6636 1.05276 22.7516C1.05276 22.8397 1.40651 22.9162 1.83906 22.9216C2.2716 22.9271 3.16534 22.9724 3.8255 23.0222C4.58266 23.0793 5.02564 23.0504 5.02564 22.944C5.02564 22.7953 5.64376 22.8907 5.84008 23.0696C5.91987 23.1423 6.0182 24.1579 6.01373 24.8638C6.01125 25.2428 6.06836 25.3205 6.28654 25.2361C6.51928 25.1459 6.52904 25.1696 6.34977 25.3876C6.2329 25.5298 6.1844 25.6939 6.24217 25.7521C6.29978 25.8104 6.25607 25.9686 6.14483 26.1038C6.03376 26.2391 5.92616 26.6971 5.90596 27.1217C5.88577 27.5464 5.86259 27.969 5.85465 28.0609C5.84654 28.1528 5.89107 28.4459 5.95348 28.7124C6.03906 29.0776 6.01588 29.1648 5.85961 29.0674C5.70086 28.9684 5.6815 29.0703 5.77635 29.502C5.84455 29.8122 5.88792 30.4404 5.87253 30.8979C5.85713 31.3554 5.92897 31.9355 6.0321 32.187C6.18158 32.5512 6.17132 32.6929 5.98145 32.8846C5.80879 33.0589 5.76973 33.3486 5.83958 33.9347C5.89272 34.38 5.93609 35.5745 5.93609 36.5891V38.4336L6.56166 38.7355C6.90564 38.9015 7.30939 38.99 7.45887 38.932C7.60818 38.8742 7.79126 38.9233 7.86542 39.0413C7.97518 39.2159 8.00067 39.2159 8.00282 39.0411C8.00464 38.8759 8.08427 38.869 8.3473 39.0111C8.53552 39.1128 9.03825 39.1838 9.46468 39.1693C9.8911 39.1546 10.2773 39.1544 10.3228 39.1688C10.3683 39.1833 10.7228 39.2241 11.1103 39.2595C11.7001 39.3135 11.8552 39.262 12.0615 38.9442C12.322 38.543 12.3357 38.4144 12.3121 36.6182C12.3038 35.9946 12.3422 35.4105 12.3975 35.3202C12.4528 35.23 12.4101 34.3117 12.3026 33.2794C12.1952 32.2471 12.1134 31.3275 12.1209 31.2356C12.1285 31.1437 12.1679 30.1475 12.2086 29.0218L12.2826 26.9752L11.8822 27.0767C11.6618 27.1325 11.4816 27.1041 11.4816 27.0137C11.4816 26.9235 11.7236 26.8002 12.0196 26.7401C12.4544 26.6517 12.5101 26.5972 12.3093 26.4558C12.1722 26.3593 12.1351 26.2493 12.2265 26.2104C12.3175 26.1715 12.3804 25.7831 12.3662 25.3474C12.352 24.9116 12.4104 24.4229 12.4962 24.2611C12.5998 24.0658 12.5927 23.9672 12.4748 23.9672C12.3596 23.9672 12.3498 23.8648 12.4467 23.6748C12.5286 23.5141 12.5634 23.2917 12.5238 23.1807C12.4697 23.0289 13.0711 22.9806 14.9635 22.9849C17.3449 22.9904 17.4955 22.9712 17.8718 22.6143C18.2294 22.2753 18.2686 22.0995 18.2686 20.836C18.2686 20.0649 18.2001 19.3046 18.1163 19.1465C17.9787 18.887 17.5271 18.856 13.4399 18.8249C10.9515 18.806 8.58054 18.753 8.17084 18.7073C7.76114 18.6616 6.58798 18.5843 5.56364 18.5357C4.12413 18.4671 3.70085 18.4951 3.69886 18.659C3.69671 18.8279 3.66873 18.8274 3.56114 18.656C3.46546 18.5039 3.03208 18.4524 2.07892 18.48C1.33798 18.5016 0.679802 18.4667 0.616401 18.4027C0.452685 18.2374 0.261655 18.2585 0.141475 18.4546ZM47.4858 18.4989C45.703 18.6252 44.5899 18.9101 43.7613 19.4521C43.5336 19.601 43.1491 19.8084 42.9068 19.9131C41.7902 20.3957 39.6228 22.3857 39.6228 22.9284C39.6228 23.0155 39.481 23.2686 39.3077 23.491C39.1343 23.7134 38.9052 24.2312 38.7985 24.6414C38.6917 25.0518 38.4929 25.7258 38.3566 26.1394C37.9445 27.3899 38.18 30.7632 38.7978 32.4558C39.4028 34.1139 40.8808 36.0919 42.1978 37.0065C44.023 38.274 46.6259 39.1188 49.1098 39.2497C50.3907 39.3172 52.7756 38.8926 53.9418 38.3895C54.9165 37.9689 56.3359 36.9544 56.3532 36.666C56.3629 36.5029 56.3967 36.4862 56.4497 36.6182C56.5543 36.8787 57.1697 36.5253 57.1697 36.2048C57.1697 36.0872 57.3684 35.6733 57.6112 35.2852C57.8539 34.897 58.0526 34.4881 58.0526 34.3769C58.0526 34.2654 58.1146 34.2131 58.1906 34.2604C58.2664 34.3077 58.3285 34.2292 58.3285 34.086C58.3285 33.9428 58.3949 33.8255 58.476 33.8255C58.6955 33.8255 58.798 32.6271 58.614 32.2112C58.428 31.7905 57.886 31.6576 56.2561 31.6329C55.5496 31.6222 55.0894 31.6867 55.0515 31.8015C55.0178 31.9038 54.9032 31.9892 54.7971 31.9913C54.6908 31.9933 54.1197 32.6466 53.5279 33.4432C52.9361 34.2395 52.397 34.8793 52.3299 34.8646C52.2627 34.85 51.8707 34.9839 51.4587 35.1622C51.0467 35.3405 50.6733 35.4885 50.6289 35.4913C50.5845 35.494 50.5297 35.5022 50.5069 35.5092C50.484 35.5162 50.2048 35.5421 49.8861 35.5667C49.144 35.624 47.3268 34.7835 46.5022 34.0017C46.0243 33.5484 45.1216 31.7374 44.9886 30.9647C44.9351 30.6541 44.8498 30.2874 44.7992 30.1495C44.676 29.8147 44.7522 28.9381 44.9225 28.7283C44.9977 28.6357 45.0553 28.1291 45.0506 27.6022C45.0458 27.0754 45.1221 26.5469 45.2198 26.4279C45.3329 26.2906 45.3416 26.1223 45.2441 25.9666C45.0283 25.6222 45.0491 25.4673 45.2984 25.5639C45.4198 25.611 45.5184 25.519 45.528 25.3499C45.5719 24.5799 45.6658 24.1343 45.7838 24.1343C45.855 24.1343 45.9132 24.0302 45.9132 23.9032C45.9132 23.7761 46.0697 23.6307 46.261 23.5802C46.4524 23.5296 46.5597 23.4083 46.4996 23.3101C46.4395 23.212 46.4885 23.1318 46.6085 23.1318C46.7287 23.1318 46.9199 22.9814 47.0336 22.7976C47.1473 22.6138 47.3825 22.4634 47.5562 22.4634C47.73 22.4634 47.898 22.3849 47.9296 22.289C47.9614 22.1931 48.2975 22.1022 48.6767 22.087C49.056 22.0716 49.3355 22.0091 49.2981 21.9479C49.1995 21.787 50.7085 22.114 51.2932 22.3804C51.5663 22.5047 51.827 22.6003 51.8726 22.5927C52.0538 22.5625 53.5168 24.0934 53.9446 24.7609C54.1949 25.1514 54.4455 25.4805 54.5018 25.4921C54.5579 25.5036 54.9764 25.5323 55.4316 25.5559C55.8868 25.5795 56.5573 25.6485 56.9214 25.7091C57.4036 25.7895 57.516 25.7721 57.3353 25.6455C57.1507 25.5161 57.225 25.4982 57.6246 25.5756C58.3287 25.712 58.7193 25.3998 58.5743 24.8165C58.4528 24.3283 57.6659 23.1655 56.5172 21.7773C56.2429 21.446 56.0704 21.1224 56.1338 21.0584C56.1972 20.9944 56.1082 20.9965 55.9358 21.0634C55.688 21.1593 55.6446 21.1262 55.7287 20.9051C55.8034 20.7087 55.7479 20.6254 55.5424 20.6254C55.3813 20.6254 55.157 20.532 55.0439 20.4179C54.8804 20.2528 54.8103 20.2563 54.7004 20.4358C54.5337 20.7083 54.3154 20.4288 54.4362 20.0974C54.4897 19.9509 54.1897 19.7293 53.5677 19.4558C53.0451 19.2261 52.543 19.0309 52.4519 19.0219C52.3609 19.013 52.1747 18.9604 52.0381 18.9049C50.8164 18.4083 49.9066 18.3271 47.4858 18.4989ZM150.036 18.6961C148.898 19.1033 147.057 20.0991 146.613 20.5481C146.467 20.6951 146.184 20.9242 145.983 21.0569C145.655 21.2737 144.73 22.9015 144.795 23.1478C144.81 23.2026 144.738 23.353 144.635 23.482C144.522 23.6244 144.463 24.2755 144.486 25.1368C144.52 26.3949 144.584 26.6583 145.047 27.444C145.572 28.3364 146.723 29.6624 146.728 29.3814C146.729 29.2985 146.785 29.3082 146.852 29.4031C146.98 29.5844 148.716 30.333 149.705 30.6329C150.023 30.7295 151.194 31.0007 152.305 31.2356C155.6 31.932 156.939 32.44 157.307 33.1332C157.539 33.5708 157.224 34.6544 156.857 34.6825C156.701 34.6943 156.388 34.7261 156.161 34.7531C155.933 34.7802 154.808 34.846 153.661 34.8995L151.575 34.9966L150.599 34.4709C149.315 33.7802 148.298 32.9265 148.056 32.3375C147.829 31.7843 147.241 31.6533 144.985 31.6533H143.623L143.76 32.3634C144.077 34.0006 144.61 35.2364 145.153 35.5958C145.381 35.746 145.567 35.9543 145.568 36.0586C145.569 36.2755 146.563 37.0001 146.86 37.0001C146.968 37.0001 147.056 37.0753 147.056 37.1672C147.056 37.2591 147.142 37.3343 147.248 37.3343C147.353 37.3343 147.669 37.5079 147.951 37.7201C148.803 38.3619 149.909 38.8776 150.026 38.6871C150.094 38.5768 150.308 38.6233 150.622 38.8157C150.891 38.9812 151.298 39.101 151.526 39.0819C151.753 39.063 152.007 39.0871 152.089 39.1354C152.171 39.1838 152.953 39.2121 153.827 39.1982C155.054 39.1787 155.459 39.1135 155.607 38.912C155.747 38.7212 155.83 38.7041 155.919 38.8487C156.044 39.0537 157.473 38.9688 157.849 38.7342C157.953 38.6689 158.231 38.601 158.466 38.5835C159.362 38.5161 162.155 37.3332 162.053 37.0641C162.005 36.9397 162.06 36.8845 162.184 36.9323C162.477 37.0458 163.198 35.9458 163.621 34.7419C164.359 32.6368 163.995 30.3736 162.738 29.2584C162.353 28.9164 161.925 28.5319 161.788 28.4039C161.479 28.1164 159.905 27.309 159.652 27.309C159.55 27.309 159.338 27.239 159.179 27.1534C159.021 27.0679 157.998 26.8391 156.906 26.645C153.6 26.0578 152.663 25.7895 151.731 25.1627C150.788 24.5293 150.781 24.4966 151.34 23.3176C151.792 22.3647 153.924 21.7626 155.452 22.1563C155.797 22.2449 156.395 22.3939 156.782 22.4875C157.169 22.581 157.485 22.7267 157.485 22.8111C157.485 22.8955 157.589 22.9647 157.716 22.9647C158.135 22.9647 158.724 23.7649 158.899 24.5724C159.036 25.2045 159.155 25.3896 159.48 25.4775C160.059 25.6338 162.654 25.58 162.925 25.4062C163.248 25.1983 163.103 23.4315 162.732 23.0569C162.577 22.9012 162.451 22.7124 162.451 22.6372C162.451 22.4083 160.978 20.9765 160.158 20.4086C159.733 20.1143 159.051 19.734 158.642 19.5634C158.233 19.3928 157.564 19.1115 157.154 18.9383C155.374 18.1861 151.801 18.0645 150.036 18.6961ZM19.946 18.6757C19.5583 18.8688 19.5555 18.8901 19.6785 20.6254C19.8183 22.5979 19.846 25.0424 19.7826 29.8153C19.7268 34.0119 19.7275 34.0316 19.924 33.909C20.015 33.8522 20.0895 33.8854 20.0895 33.9827C20.0895 34.0799 19.9629 34.1596 19.8081 34.1596C19.6068 34.1596 19.5775 34.2109 19.7053 34.3399C19.8218 34.4576 19.8558 35.1735 19.8031 36.4036C19.7101 38.5735 19.656 38.4953 21.331 38.6116C21.8773 38.6493 22.5634 38.7188 22.8559 38.7656C23.7311 38.906 28.201 38.9317 28.201 38.7964C28.2008 38.6085 28.9932 38.6453 29.1116 38.8386C29.1785 38.9479 29.318 38.9499 29.5133 38.8445C29.678 38.7556 29.8537 38.7242 29.9038 38.7748C30.0209 38.8931 34.9742 38.9509 34.9021 38.8331C34.8216 38.7019 35.5523 38.7574 35.7806 38.8999C35.9113 38.9815 35.9443 38.9357 35.8787 38.7633C35.8138 38.5928 35.8746 38.5039 36.0559 38.5039C36.2075 38.5039 36.2888 38.574 36.2365 38.6595C36.1027 38.8777 36.3679 39.0099 36.622 38.8513C36.7869 38.7486 36.7716 38.6575 36.553 38.4368C36.3988 38.2812 36.3244 38.1016 36.3876 38.0379C36.4508 37.9741 36.5692 38.0341 36.651 38.1711C37.0721 38.8786 37.0757 38.8807 37.4669 38.6446C37.824 38.4291 37.8347 38.3537 37.7455 36.6882C37.6417 34.7498 37.3868 34.1815 36.7701 34.5147C36.5897 34.6121 36.0021 34.6564 35.4642 34.613C34.9262 34.5695 34.4457 34.6001 34.3962 34.681C34.3467 34.7618 34.2174 34.8268 34.109 34.8255C33.9908 34.824 34.0113 34.7585 34.1601 34.6621C34.322 34.5573 33.5733 34.5336 32.0081 34.5937C29.2366 34.7005 27.1804 34.6868 26.4449 34.5566L25.9305 34.4656L25.9528 32.3492C25.974 30.341 25.9919 30.2359 26.3018 30.2904C26.4812 30.3218 27.0007 30.3716 27.4559 30.4008C27.9111 30.4302 28.3208 30.4697 28.3663 30.4887C28.4119 30.5077 28.5236 30.5021 28.6146 30.476C28.9383 30.3836 33.1664 30.4018 33.1666 30.4955C33.1669 30.5936 35.1409 30.395 35.7327 30.2372C36.1492 30.1263 36.699 29.3732 36.5458 29.1232C36.4828 29.02 36.422 28.4221 36.4111 27.7947C36.4003 27.1671 36.3043 26.5659 36.1979 26.4585C35.9089 26.1668 32.6908 26.0837 29.196 26.2781C25.8358 26.4649 25.8154 26.46 25.9871 25.514C26.1079 24.8466 25.9366 24.0813 25.6992 24.2294C25.6034 24.2892 25.6428 24.1081 25.7868 23.8269C26.1116 23.1931 26.1213 22.9009 25.8143 23.0198C25.6851 23.0698 25.5413 23.01 25.4946 22.887C25.3397 22.4796 27.188 22.3271 29.6906 22.5404C31.8991 22.7289 32.0391 22.7435 32.9631 22.8798C33.7316 22.9933 33.8231 22.9762 33.7317 22.7359C33.6744 22.5851 33.7099 22.4634 33.8113 22.4634C33.9122 22.4634 33.9946 22.5849 33.9946 22.7336C33.9946 22.9202 34.0956 22.977 34.3217 22.9174C34.5016 22.8698 34.9274 22.8943 35.2679 22.9719C35.6468 23.0583 35.9631 23.0491 36.0835 22.9483C36.2164 22.8369 36.3076 22.8534 36.3657 22.9994C36.4313 23.1647 36.4546 23.1664 36.4646 23.0065C36.4717 22.8917 36.5803 22.7976 36.7059 22.7976C36.8314 22.7976 37.0216 22.5846 37.1284 22.3241C37.3401 21.8083 37.4483 19.1477 37.2694 18.8606C37.1966 18.7439 35.6509 18.6732 32.7501 18.654C30.3255 18.6377 28.2789 18.5856 28.2026 18.538C28.1261 18.4902 28.0296 18.5457 27.9882 18.6611C27.9326 18.8164 27.832 18.8249 27.6017 18.6941C27.1521 18.4384 20.454 18.4224 19.946 18.6757ZM60.4931 18.7223C60.0931 18.8921 60.0536 18.9953 60.0277 19.9337C60.0122 20.4979 60.0519 20.9598 60.1158 20.9598C60.2583 20.9601 60.2664 25.2416 60.1241 25.3851C60.0683 25.4416 60.0805 25.7475 60.1514 26.065C60.2241 26.3898 60.2145 26.6836 60.1295 26.7365C60.0464 26.7883 60.0243 26.9056 60.0802 26.997C60.1362 27.0884 60.184 29.7901 60.1863 33.0007L60.1906 38.8381L62.0324 38.8513C63.9885 38.8652 66.0076 38.8311 66.0491 38.7833C66.068 38.7616 66.2117 37.8317 66.268 37.3662C66.2715 37.3378 66.3613 37.3689 66.4679 37.4354C66.5974 37.5161 66.6272 37.4658 66.558 37.2835C66.5009 37.1335 66.5158 36.9724 66.5909 36.9256C66.6663 36.8787 66.6696 36.5194 66.5986 36.1271C66.5275 35.735 66.5204 35.3762 66.5828 35.3299C66.7823 35.1821 66.6747 32.5957 66.4661 32.5255C66.216 32.4413 66.2158 32.1419 66.466 32.1963C66.5914 32.2237 66.6537 31.9639 66.6457 31.4454C66.6391 31.0095 66.6916 30.6167 66.7624 30.5726C66.8331 30.5285 67.7578 30.4832 68.8174 30.472C69.8768 30.4608 70.7855 30.3836 70.8366 30.3002C70.8909 30.2113 71.0596 30.2189 71.244 30.3186C71.417 30.412 72.0028 30.4686 72.5458 30.4442C73.5067 30.4013 73.5355 30.4125 73.6251 30.865C73.7277 31.383 73.6023 34.5702 73.4033 36.4989C73.2362 38.1175 73.2637 38.7633 73.4978 38.7192C73.6014 38.6996 73.9366 38.7594 74.2427 38.8522C74.9946 39.0797 75.9782 39.1818 77.9092 39.2328C79.1681 39.266 79.5738 39.2211 79.7301 39.0311C79.8771 38.8523 79.9178 37.862 79.8816 35.3453C79.8336 32.0024 79.767 30.2768 79.6826 30.1913C79.6599 30.1682 79.6295 30.0932 79.6149 30.0242C79.6002 29.9552 79.4952 29.7296 79.3813 29.5229C79.2085 29.2086 79.2145 29.147 79.4184 29.147C79.5525 29.147 79.6581 29.0153 79.6531 28.8546C79.6482 28.6938 79.6847 28.1287 79.7344 27.5989C79.7971 26.9297 79.77 26.6697 79.6453 26.7474C79.5301 26.8194 79.5146 26.7802 79.602 26.6375C79.7814 26.3444 79.8097 25.8729 79.8344 22.776C79.8478 21.1008 79.7851 19.9925 79.6596 19.6849C79.5518 19.4211 79.4758 19.1489 79.4906 19.0799C79.5051 19.0109 79.4427 18.9546 79.3517 18.9546C79.1297 18.9546 79.1494 18.9589 78.1552 18.6917C76.6586 18.2897 73.8352 18.4197 73.6529 18.8991C73.6031 19.0301 73.5574 20.852 73.5514 22.9476L73.5405 26.7581L70.3627 26.6933C68.6148 26.6575 67.0928 26.5964 66.9804 26.5573C66.8485 26.5113 66.799 26.2471 66.8406 25.8115C66.876 25.4404 66.8411 25.1368 66.7629 25.1368C66.685 25.1368 66.6487 24.9159 66.6826 24.6459C66.7265 24.2955 66.6828 24.1789 66.5297 24.2382C66.1956 24.3676 66.0227 23.4444 66.3466 23.2613C66.6883 23.0683 66.6977 22.438 66.357 22.57C66.2205 22.623 66.1087 22.5831 66.1087 22.4813C66.1087 22.3795 66.2019 22.3152 66.3157 22.3381C66.4295 22.3612 66.5151 22.286 66.506 22.171C66.4969 22.0562 66.4772 21.7555 66.4622 21.5027C66.4401 21.1349 66.4012 21.0933 66.2667 21.2938C66.1422 21.4796 66.1261 21.425 66.2049 21.0828C66.268 20.8087 66.2283 20.5202 66.1069 20.3726C65.9447 20.1753 65.9452 20.1242 66.1087 20.1242C66.2673 20.1242 66.2701 20.0699 66.121 19.8884C65.9884 19.7272 65.9821 19.6184 66.1006 19.5444C66.4185 19.3462 66.2806 19.129 65.6535 18.8399C64.9155 18.4997 61.2163 18.4154 60.4931 18.7223ZM125.484 18.7295C125.424 18.7893 125.147 18.8319 124.867 18.8239C124.588 18.8159 124.332 18.8984 124.299 19.0072C124.139 19.5379 124.056 20.6395 124.181 20.5613C124.373 20.4416 124.416 23.3376 124.296 28.3115C124.169 33.5854 124.152 33.464 125.229 34.8521C125.489 35.1869 125.704 35.5253 125.706 35.604C125.708 35.6827 126.062 36.1333 126.492 36.6053C127.32 37.5129 128.88 38.5039 129.481 38.5039C129.679 38.5039 129.84 38.5631 129.84 38.6354C129.84 38.7078 129.971 38.782 130.13 38.8002C130.289 38.8184 130.978 38.936 131.661 39.0615C133.052 39.3173 133.223 39.3123 135.561 38.9477C137.27 38.6814 138.51 38.1766 138.8 37.6296C138.886 37.4672 139.047 37.3333 139.158 37.3322C139.268 37.3308 139.739 36.9737 140.204 36.5385C141.412 35.4065 141.813 34.3687 141.867 32.2381C141.89 31.3191 141.953 30.0785 142.006 29.4811C142.179 27.557 142.206 20.4584 142.04 20.4584C141.954 20.4584 141.966 20.3589 142.066 20.2375C142.246 20.0181 142.212 19.1211 142.01 18.7921C141.881 18.5818 138.779 18.5585 138.779 18.7679C138.779 18.8491 138.624 18.9566 138.434 19.0068C138.11 19.0922 138.096 19.1701 138.211 20.2376C138.279 20.8645 138.321 21.4901 138.306 21.628C138.29 21.7658 138.285 22.2922 138.295 22.7976C138.304 23.303 138.315 23.867 138.317 24.0508C138.32 24.2346 138.279 24.6446 138.227 24.9621C138.173 25.2916 138.214 25.6376 138.321 25.7684C138.462 25.94 138.462 26.0274 138.321 26.1155C138.12 26.2411 138.136 26.9344 138.349 27.2816C138.419 27.3965 138.396 27.5887 138.298 27.7083C138.199 27.8281 138.149 28.2383 138.185 28.6201C138.224 29.027 138.181 29.3141 138.081 29.3141C137.981 29.3141 137.996 29.4167 138.117 29.5647C138.271 29.7515 138.274 29.8153 138.128 29.8153C138.02 29.8153 137.978 29.8905 138.034 29.9824C138.091 30.0743 138.077 30.2436 138.004 30.3584C137.931 30.4733 137.854 30.7176 137.834 30.9014C137.573 33.2417 137.025 34.3368 135.976 34.616C135.206 34.8208 133.58 34.7523 133.08 34.4938C132.263 34.0711 131.487 32.7706 131.313 31.5305C131.229 30.9335 131.125 30.3868 131.081 30.3154C130.911 30.0376 130.857 28.9799 131.013 28.9799C131.116 28.9799 131.11 28.8546 130.997 28.6422C130.899 28.4566 130.875 28.2126 130.943 28.1003C131.012 27.9879 131.088 27.1219 131.111 26.1758C131.143 24.8613 131.106 24.4845 130.952 24.5778C130.812 24.6628 130.816 24.6185 130.966 24.4319C131.118 24.2427 131.127 24.1308 130.999 24.0508C130.89 23.9826 130.876 23.8601 130.964 23.7435C131.077 23.5931 131.128 19.2204 131.022 18.7736C130.986 18.6217 130.006 18.659 130.006 18.8122C130.006 18.8872 129.298 18.931 128.433 18.9098C127.568 18.8884 126.861 18.9288 126.861 18.9995C126.861 19.1666 125.967 18.9465 125.895 18.7616C125.829 18.5933 125.634 18.5779 125.484 18.7295ZM130.458 19.3021C130.517 19.528 130.592 19.6039 130.633 19.4787C130.673 19.3581 130.627 19.1801 130.53 19.0829C130.408 18.9589 130.386 19.0242 130.458 19.3021ZM60.9771 19.6229C60.9771 19.7148 61.0561 19.79 61.1524 19.79C61.2487 19.79 61.2817 19.7148 61.2254 19.6229C61.1691 19.531 61.0903 19.4558 61.0501 19.4558C61.0099 19.4558 60.9771 19.531 60.9771 19.6229ZM141.265 19.5811C141.266 19.6501 141.338 19.8186 141.424 19.9557C141.551 20.1586 141.619 20.1649 141.792 19.9905C141.965 19.8161 141.959 19.7467 141.758 19.6186C141.458 19.4272 141.262 19.4124 141.265 19.5811ZM101.505 21.2114C101.465 21.252 101.138 21.3138 100.779 21.3489C98.5958 21.5621 96.6688 23.5724 96.4574 25.8575C96.3341 27.191 96.7292 28.7962 97.4417 29.8559C98.0221 30.7191 99.212 31.594 100.03 31.7591C100.315 31.8166 100.587 31.929 100.636 32.009C100.685 32.0891 101.149 32.1511 101.668 32.1469C102.411 32.1409 102.872 32.0085 103.851 31.5203C104.534 31.1799 105.074 30.8075 105.051 30.6925C105.028 30.5778 105.109 30.4837 105.229 30.4837C105.545 30.4837 106.224 29.7062 106.094 29.4935C106.033 29.3948 106.063 29.3141 106.159 29.3141C106.255 29.3141 106.334 29.1356 106.334 28.9174C106.334 28.6992 106.45 28.1916 106.592 27.7895C107.195 26.0802 106.463 23.4661 105.018 22.1682C104.6 21.7929 103.463 21.3685 103.065 21.439C102.951 21.459 102.858 21.4158 102.857 21.3429C102.856 21.2034 101.631 21.0843 101.505 21.2114ZM87.2144 21.7357C87.0023 21.9498 86.9598 22.3867 86.9829 24.1104C86.9987 25.2723 87.0033 27.1628 86.9935 28.3115C86.9836 29.4603 86.999 30.6257 87.0278 30.9014C87.0566 31.1771 87.0917 31.5811 87.1059 31.799C87.127 32.1203 87.1761 32.1584 87.3655 31.9998C87.5271 31.8645 87.6325 31.8588 87.7075 31.9811C87.8424 32.2015 88.8214 32.1494 89.0068 31.912C89.1008 31.7915 89.168 31.7965 89.2217 31.928C89.3453 32.2304 89.9407 31.9843 90.0354 31.5916C90.0824 31.3958 90.0972 30.4321 90.068 29.4497C90.0237 27.9581 90.057 27.6494 90.2702 27.5748C90.4105 27.5259 90.6537 27.3914 90.8105 27.2759C91.0402 27.1067 91.1367 27.1082 91.3071 27.2829C91.4235 27.4022 91.4442 27.4856 91.3531 27.4682C90.9901 27.3987 90.5603 27.4834 90.678 27.6014C90.8606 27.7844 91.6638 27.7546 91.8058 27.5596C91.8812 27.4562 91.9283 27.4721 91.93 27.6014C91.9313 27.7164 92.007 27.8103 92.098 27.8103C92.1891 27.8103 92.2636 27.7063 92.2636 27.5792C92.2636 27.3827 92.3624 27.3825 92.9252 27.5782C93.2892 27.7048 93.7547 27.7767 93.9598 27.7381C94.1649 27.6996 94.5748 27.6624 94.8708 27.6555C95.3502 27.6445 95.4088 27.5909 95.4088 27.1628C95.4088 25.8496 94.9201 25.1113 94.4659 25.7382C94.298 25.9698 94.2422 25.9795 94.1699 25.789C94.1012 25.6085 93.6387 25.5487 92.1621 25.5292C91.1068 25.5153 90.1698 25.4296 90.0798 25.3387C89.9897 25.2478 89.9042 24.9208 89.8896 24.612C89.8752 24.3034 89.7888 23.9945 89.6977 23.9254C89.4279 23.7211 89.9833 23.4514 90.4427 23.5637C91.2606 23.7637 93.6756 23.9253 94.0007 23.802C94.1833 23.7326 94.5935 23.7136 94.9121 23.7594C95.2308 23.8053 95.4392 23.7866 95.3753 23.7181C95.3113 23.6494 95.3672 23.484 95.4995 23.3507C95.7938 23.0534 95.8176 21.8651 95.5329 21.6811C95.4192 21.6076 94.1133 21.5356 92.6312 21.521C90.385 21.499 89.8932 21.5379 89.6779 21.7555C89.5209 21.9139 89.3764 21.9516 89.3102 21.8517C89.1392 21.5939 88.6962 21.4783 88.455 21.6286C88.3344 21.704 88.0642 21.6998 87.8548 21.6196C87.5799 21.514 87.4021 21.5463 87.2144 21.7357ZM109.531 21.9463C109.059 22.0049 108.639 22.089 108.598 22.1329C108.465 22.2766 108.316 31.7322 108.444 31.9153C108.524 32.0296 108.977 32.0577 109.704 31.9935C111.069 31.873 111.337 31.6257 111.118 30.6865C110.945 29.9413 111.102 28.2126 111.364 27.9936C111.797 27.6303 112.39 27.6235 112.834 27.9765C113.425 28.4457 114.078 29.7926 114.213 30.8209L114.323 31.6533L115.088 31.6814C116.004 31.7151 116.646 31.7126 117.425 31.6725C117.912 31.6475 117.964 31.6102 117.75 31.4391C117.479 31.2231 117.193 30.3527 117.012 29.1974C116.952 28.8116 116.679 28.1563 116.407 27.7412L115.912 26.9863L116.256 26.6136C116.684 26.1502 116.926 25.2969 116.928 24.2538C116.929 23.3124 116.627 22.7795 115.802 22.2646C115.264 21.9291 114.972 21.8903 112.798 21.8662C111.473 21.8515 110.003 21.8875 109.531 21.9463ZM46.2443 22.8075C46.2443 22.9047 46.3188 22.9379 46.4098 22.8811C46.5009 22.8243 46.5754 22.7448 46.5754 22.7042C46.5754 22.6636 46.5009 22.6305 46.4098 22.6305C46.3188 22.6305 46.2443 22.7102 46.2443 22.8075ZM45.8305 23.2989C45.7742 23.3908 45.8027 23.466 45.8937 23.466C45.9847 23.466 46.1053 23.3908 46.1615 23.2989C46.2178 23.207 46.1894 23.1318 46.0983 23.1318C46.0073 23.1318 45.8868 23.207 45.8305 23.2989ZM102.008 23.2101C101.965 23.2532 101.673 23.3069 101.359 23.3294C100.748 23.3732 100.375 23.6315 100.375 24.011C100.375 24.1402 100.319 24.3021 100.251 24.3711C100.182 24.4399 100.124 24.5465 100.121 24.6077C100.117 24.669 100.017 24.8974 99.8973 25.1153C99.766 25.3542 99.6796 26.0669 99.6796 26.9101C99.6796 28.1067 99.7404 28.4134 100.1 29.0335C100.728 30.1137 100.883 30.2038 101.728 29.9774C102.525 29.7637 103.189 29.2342 103.189 28.8115C103.189 28.6591 103.245 28.4781 103.313 28.4094C103.381 28.3406 103.455 28.0462 103.477 27.755C103.499 27.4637 103.561 26.7367 103.614 26.1394C103.732 24.8349 103.307 23.6499 102.607 23.3279C102.122 23.1052 102.113 23.1034 102.008 23.2101ZM66.357 23.633C66.3008 23.7249 66.3752 23.8001 66.5226 23.8001C66.6699 23.8001 66.7444 23.7249 66.6881 23.633C66.6318 23.5411 66.5573 23.466 66.5226 23.466C66.4878 23.466 66.4133 23.5411 66.357 23.633ZM111.379 23.6676C111.292 23.8995 111.245 24.7661 111.279 25.5128C111.3 25.9704 111.305 25.9723 112.516 25.9723C113.484 25.9723 113.788 25.91 114.006 25.6667C114.317 25.3196 114.358 24.6977 114.113 24.0461C113.953 23.6212 113.904 23.6055 113 23.6868C112.479 23.7335 111.92 23.6997 111.757 23.6117C111.548 23.4984 111.437 23.5147 111.379 23.6676ZM20.3764 24.155C20.4888 24.2693 20.6224 24.3206 20.6732 24.2691C20.7242 24.2177 20.6323 24.1243 20.4691 24.0615C20.2332 23.9709 20.2141 23.9899 20.3764 24.155ZM66.2743 26.1394C66.2743 26.2313 66.3532 26.3065 66.4496 26.3065C66.5459 26.3065 66.5789 26.2313 66.5226 26.1394C66.4663 26.0475 66.3875 25.9723 66.3473 25.9723C66.307 25.9723 66.2743 26.0475 66.2743 26.1394ZM100.865 34.0923C100.186 34.1999 99.3879 34.3342 99.092 34.3909C98.796 34.4475 98.3119 34.5388 98.016 34.5939C97.72 34.6489 97.4305 34.7712 97.3724 34.8659C97.3143 34.9605 97.1838 34.9862 97.0827 34.9231C96.9814 34.8599 96.8986 34.8855 96.8986 34.98C96.8986 35.0744 96.7746 35.1037 96.6231 35.045C96.4515 34.9785 96.3884 35.0048 96.4558 35.1149C96.5152 35.212 96.4409 35.3939 96.2904 35.5192C96.0769 35.697 96.0019 35.7012 95.9474 35.5381C95.9075 35.4185 95.6006 35.3293 95.2295 35.3293C94.7233 35.3293 94.5806 35.3934 94.5786 35.6217C94.5766 35.8519 94.5455 35.8653 94.4321 35.6848C94.2164 35.341 92.8226 35.8344 92.8929 36.2297C92.9333 36.4573 92.8259 36.5026 92.3255 36.4685C91.9533 36.4432 91.6812 36.5077 91.6406 36.6309C91.6036 36.7432 91.5003 36.7896 91.4112 36.7341C91.2154 36.612 87.293 38.5324 86.8735 38.9558C86.71 39.1208 86.5219 39.2558 86.4555 39.2558C86.332 39.2558 85.4373 39.9623 84.7098 40.6343C84.486 40.841 84.2502 41.0106 84.1862 41.011C84.122 41.0115 83.746 41.2283 83.3506 41.4932C82.8884 41.8026 82.7111 42.0066 82.8539 42.0641C82.985 42.1167 82.9332 42.159 82.728 42.1667C82.3403 42.1814 82.1742 42.3291 80.2138 44.4035C79.4588 45.2022 78.7697 45.8559 78.6826 45.8559C78.5953 45.8559 78.5405 45.9122 78.5607 45.9812C78.5811 46.0502 78.47 46.2988 78.3143 46.5341C78.0444 46.9409 78.0468 46.9931 78.3601 47.6136C78.5414 47.9724 78.6895 48.2031 78.6895 48.1264C78.6895 48.0497 78.8051 48.0838 78.9463 48.2021C79.1616 48.3826 79.2163 48.3654 79.2866 48.094C79.3326 47.9164 79.6447 47.5844 79.9802 47.3565C80.3156 47.1284 80.7718 46.7269 80.9941 46.4641C81.2165 46.2012 81.5151 45.8682 81.6579 45.724C81.8006 45.58 81.9175 45.4204 81.9175 45.3698C81.9175 45.319 82.0292 45.2761 82.1658 45.2742C82.3171 45.2722 82.3931 45.1479 82.3603 44.9559C82.3222 44.7334 82.3795 44.6692 82.5551 44.7372C82.8339 44.8451 83.2239 44.4732 83.0334 44.281C82.966 44.2129 82.9852 44.1723 83.0763 44.1908C83.4183 44.2605 83.6719 44.1796 83.5802 44.0299C83.528 43.9447 83.6353 43.8267 83.8187 43.7681C84.0021 43.7093 84.1522 43.5866 84.1522 43.4956C84.1522 43.4043 84.2267 43.3763 84.3178 43.4331C84.4088 43.4899 84.4833 43.4205 84.4833 43.279C84.4833 43.136 84.6856 42.9734 84.9386 42.9131C85.189 42.8533 85.5428 42.6686 85.7249 42.5029C86.3201 41.9607 87.5297 41.1993 87.6635 41.2826C87.7353 41.3274 87.7941 41.2469 87.7941 41.1037C87.7941 40.9605 87.8585 40.8432 87.9371 40.8432C88.0157 40.8432 88.2748 40.6465 88.5128 40.4063C88.7836 40.1329 89.0463 40.0083 89.2142 40.0733C89.3874 40.1403 89.6002 40.0265 89.8138 39.7524C90.054 39.4442 90.2381 39.3574 90.4844 39.4363C90.7441 39.5195 90.801 39.4853 90.727 39.2904C90.6204 39.0099 91.3124 38.7414 91.6305 38.9399C91.7357 39.0054 91.778 38.9558 91.7327 38.8196C91.6441 38.5536 92.4147 38.1698 93.0373 38.1698C93.2649 38.1698 93.3972 38.0966 93.3395 38.0027C93.2833 37.9108 93.3472 37.8356 93.4816 37.8356C93.6158 37.8356 93.757 37.8919 93.7953 37.9609C93.8333 38.0299 93.8441 37.998 93.8191 37.8902C93.7575 37.6251 95.0073 37.1432 95.864 37.1017C96.0688 37.0919 96.2364 37.0319 96.2364 36.9687C96.2364 36.9056 96.3669 36.8536 96.5261 36.8533C96.6854 36.8529 97.449 36.6698 98.2229 36.4464C98.9968 36.2228 100.002 35.9498 100.458 35.8394C101.438 35.6018 104.813 35.3299 105.755 35.4126C107.574 35.5724 108.235 35.6905 108.352 35.8768C108.451 36.0337 108.482 36.0304 108.484 35.8624C108.485 35.7283 108.566 35.695 108.693 35.7764C108.807 35.8492 109.012 35.9137 109.148 35.9198C109.562 35.9376 110.142 36.1781 110.142 36.3315C110.142 36.4108 110.307 36.4997 110.509 36.529C110.71 36.5584 110.99 36.7935 111.129 37.0513C111.365 37.4865 111.36 37.5377 111.062 37.7614C110.671 38.0545 109.949 38.0759 109.678 37.8022C109.524 37.6463 109.479 37.6625 109.479 37.8755C109.479 38.2394 108.102 38.4715 107.74 38.1684C107.541 38.002 107.493 38.0074 107.493 38.1963C107.493 38.3262 107.308 38.4465 107.079 38.4657C106.851 38.4846 106.665 38.4204 106.665 38.323C106.665 38.2201 106.573 38.2384 106.445 38.3668C106.324 38.4881 105.784 38.7248 105.245 38.8929C104.706 39.0609 104.059 39.3023 103.807 39.4296C103.555 39.5569 103.239 39.6183 103.104 39.566C102.968 39.5135 102.858 39.5452 102.858 39.6361C102.858 39.8831 102.251 39.9964 102.044 39.7879C101.915 39.6577 101.865 39.6933 101.865 39.9142C101.865 40.2764 101.412 40.6632 100.98 40.6708C100.812 40.6738 100.458 40.8317 100.193 41.0216C99.9291 41.2118 99.7127 41.3246 99.7127 41.2723C99.7127 41.2201 99.5611 41.3304 99.3757 41.5176C99.1901 41.7049 98.966 41.8126 98.8776 41.7575C98.5556 41.5567 98.0365 41.8651 98.0719 42.2362C98.091 42.4349 98.0525 42.7234 97.9863 42.8772C97.8344 43.2306 97.3734 43.4346 97.5041 43.0904C97.5548 42.9572 97.5137 42.8483 97.4129 42.8483C97.3121 42.8483 97.2297 42.9986 97.2297 43.1824C97.2297 43.3662 97.1459 43.5166 97.0434 43.5166C96.9257 43.5166 96.893 43.6969 96.9542 44.0062C97.012 44.2979 96.9774 44.5205 96.8685 44.5571C96.7369 44.6014 96.7397 44.7207 96.8787 44.9828C97.0365 45.2806 97.0295 45.3307 96.8403 45.2574C96.6793 45.195 96.6089 45.2978 96.6089 45.5954C96.6089 45.8305 96.6784 46.0229 96.7635 46.0229C96.8486 46.0229 96.8726 46.0973 96.817 46.1882C96.6802 46.4114 97.1328 47.3286 97.6874 47.9522C98.4551 48.8152 99.2434 49.0845 100.69 48.9779C102.138 48.8711 102.228 48.8511 103.449 48.366C103.637 48.2912 103.995 48.2693 104.245 48.3174C104.612 48.3883 104.717 48.3345 104.795 48.0344C104.867 47.757 104.985 47.682 105.266 47.7363C105.531 47.7874 105.617 47.7425 105.556 47.5842C105.509 47.4607 105.554 47.3597 105.654 47.3597C105.755 47.3597 105.838 47.4724 105.838 47.6103C105.838 47.7481 105.912 47.8609 106.003 47.8609C106.094 47.8609 106.169 47.7481 106.169 47.6103C106.169 47.4474 106.33 47.3597 106.63 47.3597C106.974 47.3597 107.098 47.2739 107.117 47.0218C107.13 46.836 107.072 46.7277 106.986 46.781C106.901 46.8345 106.831 46.7904 106.831 46.6831C106.831 46.5573 106.981 46.526 107.253 46.5949C107.59 46.6803 107.665 46.645 107.626 46.4216C107.598 46.2674 107.681 46.1043 107.809 46.0592C107.97 46.0026 108.01 46.062 107.938 46.2517C107.848 46.4883 107.923 46.4799 108.484 46.1909C108.842 46.0066 109.252 45.8559 109.395 45.8559C109.538 45.8559 109.698 45.7436 109.75 45.6062C109.803 45.4689 109.912 45.398 109.993 45.449C110.134 45.5369 110.213 45.1823 110.153 44.7253C110.138 44.609 110.185 44.5339 110.258 44.5582C110.331 44.5826 110.641 44.3395 110.948 44.0179C111.255 43.6962 111.564 43.4493 111.635 43.4692C111.705 43.489 111.724 43.3529 111.675 43.1669C111.612 42.9213 111.683 42.8033 111.937 42.7365C112.229 42.6591 112.257 42.5899 112.107 42.3072C111.996 42.0974 111.988 41.9311 112.086 41.8663C112.37 41.6791 112.578 41.1059 112.597 40.4591C112.62 39.6487 112.708 39.5162 113.147 39.632C113.392 39.6966 113.467 39.6654 113.386 39.5329C113.316 39.4194 113.369 39.3394 113.514 39.3394C113.649 39.3394 113.784 39.5078 113.813 39.7137C113.842 39.9195 114.005 40.1147 114.175 40.1474C114.37 40.1849 114.443 40.1381 114.371 40.0211C114.308 39.9189 114.188 39.8784 114.103 39.9314C114.018 39.9842 113.95 39.8539 113.951 39.6417C113.953 39.3601 113.993 39.3175 114.097 39.4836C114.18 39.6169 114.265 39.64 114.301 39.5391C114.335 39.4445 114.571 39.4077 114.825 39.4575C115.252 39.5412 115.267 39.5703 115.028 39.8377C114.786 40.107 114.806 40.126 115.31 40.1093C115.609 40.0995 115.951 39.9785 116.072 39.8407C116.262 39.6233 116.281 39.6363 116.219 39.9381C116.158 40.232 116.227 40.2863 116.662 40.2863C116.945 40.2863 117.083 40.2547 116.969 40.2163C116.855 40.1778 116.803 40.0776 116.855 39.9935C117.02 39.7232 117.26 39.8305 117.26 40.1748C117.26 40.5854 117.754 40.6265 117.762 40.2166C117.766 39.9506 117.785 39.9484 117.97 40.1936C118.11 40.3794 118.339 40.4383 118.71 40.3835C119.17 40.3152 119.246 40.354 119.246 40.6572C119.246 40.8514 119.321 41.0103 119.412 41.0103C119.503 41.0103 119.577 40.8998 119.577 40.7648C119.577 40.6114 119.674 40.557 119.835 40.6193C119.977 40.6743 120.055 40.8185 120.009 40.9398C119.924 41.1642 120.07 41.2347 121.026 41.4288C121.322 41.489 121.564 41.6073 121.564 41.6918C121.564 41.7765 121.676 41.8457 121.814 41.8457C122.136 41.8457 123.881 42.8357 123.881 43.0184C123.881 43.0944 124.142 43.2434 124.46 43.3495C124.779 43.4556 125.04 43.6052 125.04 43.6819C125.04 43.8329 128.638 45.6505 129.128 45.7469C129.416 45.8037 129.685 45.894 130.296 46.1394C130.736 46.3164 131.234 46.3646 133.434 46.444C135.169 46.5065 135.442 46.4818 135.362 46.2699C135.242 45.9553 135.377 45.9544 135.688 46.2679C135.901 46.4829 135.926 46.4327 135.897 45.8545C135.865 45.2259 135.647 44.7065 135.623 45.2014C135.616 45.3427 135.561 45.3086 135.486 45.1172C135.385 44.8573 135.174 44.789 134.381 44.7588C133.841 44.7382 132.953 44.7041 132.406 44.6829C131.113 44.6329 129.679 44.2647 128.397 43.6536C127.83 43.3836 127.326 43.1687 127.276 43.1761C127.226 43.1834 127.094 43.1103 126.982 43.0133C126.702 42.7716 125.047 41.7827 123.55 40.9632C121.144 39.6463 120.097 39.1723 119.591 39.1723C119.283 39.1723 119.097 39.0933 119.122 38.9733C119.145 38.864 119.024 38.7439 118.854 38.7066C118.66 38.6642 118.587 38.7075 118.657 38.8221C118.846 39.1307 118.544 39.0258 118.139 38.642C117.929 38.4421 117.756 38.3669 117.756 38.4749C117.756 38.5828 117.566 38.671 117.333 38.671C117.1 38.671 116.952 38.601 117.004 38.5155C117.057 38.4299 117.012 38.3056 116.906 38.2391C116.785 38.1636 116.756 38.1905 116.83 38.311C116.909 38.4396 116.793 38.5031 116.483 38.5014C116.122 38.4994 116.074 38.4627 116.266 38.3369C116.403 38.2478 116.437 38.1738 116.341 38.1723C116.245 38.1709 116.078 38.26 115.968 38.3703C115.814 38.5262 115.77 38.5071 115.77 38.2841C115.77 38.0653 115.642 38.005 115.232 38.0296C114.936 38.0473 114.61 38.125 114.508 38.2022C114.269 38.3823 113.753 38.1878 113.887 37.9684C113.946 37.872 113.846 37.8794 113.649 37.986C113.195 38.2309 113.113 38.2179 113.227 37.9191C113.334 37.6381 113.034 37.5726 112.869 37.8413C112.747 38.0408 112.128 37.3173 112.127 36.9737C112.127 36.7243 111.561 35.7356 111.224 35.3959C110.792 34.9597 109.648 34.4698 108.295 34.1418C107.175 33.8702 106.457 33.8153 104.507 33.8519C103.183 33.8766 101.545 33.9849 100.865 34.0923ZM95.4088 35.6634C95.4088 35.7553 95.4877 35.8305 95.5841 35.8305C95.6804 35.8305 95.7133 35.7553 95.6571 35.6634C95.6008 35.5715 95.522 35.4963 95.4818 35.4963C95.4415 35.4963 95.4088 35.5715 95.4088 35.6634ZM93.446 35.9792C93.274 36.0893 93.2684 36.1522 93.4223 36.2482C93.5763 36.3443 93.5706 36.4071 93.3986 36.5173C93.242 36.6173 93.2349 36.6616 93.3751 36.6635C93.5544 36.6656 93.9189 36.1707 93.9189 35.9251C93.9189 35.7888 93.7057 35.8132 93.446 35.9792ZM94.25 36.1746C94.25 36.2718 94.3245 36.3051 94.4155 36.2482C94.5066 36.1914 94.5811 36.1119 94.5811 36.0713C94.5811 36.0307 94.5066 35.9976 94.4155 35.9976C94.3245 35.9976 94.25 36.0773 94.25 36.1746ZM7.68731 37.5988C7.69525 37.7935 7.73449 37.8331 7.78729 37.6999C7.83513 37.5793 7.82917 37.4351 7.77421 37.3796C7.71926 37.3241 7.68019 37.4227 7.68731 37.5988ZM109.254 39.4229C109.32 39.5969 109.243 39.6736 109 39.6736C108.809 39.6736 108.652 39.5897 108.652 39.4869C108.652 39.2973 108.479 39.32 107.245 39.6722C106.88 39.7762 106.489 39.8691 106.376 39.8788C106.049 39.9065 106.135 40.1971 106.498 40.293C106.679 40.3408 106.786 40.4465 106.736 40.5281C106.574 40.7939 106.193 40.6838 106.085 40.3394C106.027 40.1543 105.909 40.0468 105.823 40.1005C105.737 40.1541 105.719 40.2868 105.784 40.3952C105.857 40.5179 105.799 40.5093 105.632 40.3725C105.406 40.1874 105.313 40.2006 105.048 40.456C104.874 40.623 104.59 40.8492 104.416 40.9586C104.13 41.1388 104.127 41.1587 104.389 41.1675C104.548 41.173 104.679 41.1045 104.679 41.0155C104.679 40.9266 104.802 40.9017 104.954 40.9602C105.189 41.0512 105.177 41.086 104.87 41.2004C104.673 41.2739 104.245 41.3241 103.919 41.3117C103.592 41.2993 103.274 41.3729 103.211 41.4751C103.145 41.5841 103.006 41.6036 102.875 41.5224C102.733 41.4335 102.533 41.5057 102.317 41.7238C101.991 42.0523 101.972 42.0532 101.757 41.7557C101.487 41.3839 101.462 41.566 101.717 42.0457C101.889 42.3711 101.867 42.3846 101.323 42.2817C100.837 42.1896 100.733 42.2245 100.661 42.5041C100.601 42.7345 100.468 42.815 100.226 42.7681C100.035 42.7308 99.8783 42.7793 99.8783 42.8757C99.8783 42.9722 99.7784 43.0123 99.6563 42.9652C99.5343 42.9179 99.3293 42.9463 99.201 43.0282C99.016 43.1465 99.0319 43.1779 99.2777 43.1799C99.5344 43.1819 99.5523 43.2255 99.3816 43.4331C99.2682 43.5709 99.0544 43.6891 98.9062 43.6954C98.695 43.7046 98.7058 43.7345 98.9557 43.8333C99.2386 43.9452 99.2436 43.9714 99.0001 44.0658C98.837 44.129 98.6819 44.4466 98.6185 44.847C98.5598 45.2181 98.4523 45.5217 98.3798 45.5217C98.3071 45.5217 98.2818 45.8037 98.3234 46.1483C98.4124 46.8878 98.913 47.3506 99.6299 47.356C100.496 47.3625 102.865 46.7697 103.734 46.329C103.897 46.2463 104.102 46.2236 104.19 46.2786C104.278 46.3334 104.392 46.2691 104.442 46.1356C104.497 45.992 104.665 45.9272 104.854 45.9772C105.03 46.0236 105.428 45.9401 105.738 45.7917C106.048 45.6432 106.388 45.5217 106.493 45.5217C106.599 45.5217 106.639 45.4465 106.582 45.3546C106.526 45.2627 106.559 45.1875 106.655 45.1875C106.752 45.1875 106.831 45.2567 106.831 45.3412C106.831 45.6117 108.878 44.4777 109.503 43.861C110.164 43.2085 110.772 42.1445 110.904 41.407C110.951 41.1468 111.074 40.8813 111.177 40.817C111.316 40.7304 111.313 40.5864 111.167 40.2626C111.058 40.0218 110.969 39.6731 110.969 39.4874C110.969 39.1965 110.883 39.1593 110.348 39.2177C109.927 39.2639 109.742 39.3616 109.771 39.5214C109.801 39.6814 109.742 39.6632 109.588 39.4647C109.309 39.1063 109.125 39.0832 109.254 39.4229ZM108.214 39.924C108.227 40.1538 108.299 40.321 108.374 40.2958C108.45 40.2706 108.505 40.1956 108.499 40.1289C108.492 40.0622 108.486 39.895 108.486 39.7571C108.486 39.6193 108.42 39.5065 108.338 39.5065C108.257 39.5065 108.201 39.6945 108.214 39.924ZM101.203 40.0077C101.203 40.0996 101.277 40.1748 101.368 40.1748C101.459 40.1748 101.534 40.0996 101.534 40.0077C101.534 39.9158 101.459 39.8407 101.368 39.8407C101.277 39.8407 101.203 39.9158 101.203 40.0077ZM107.16 40.2602C106.937 40.5319 107.112 40.5885 107.469 40.3603C107.606 40.2729 107.629 40.1763 107.529 40.114C107.439 40.0575 107.273 40.1234 107.16 40.2602ZM98.2229 42.2634C98.2229 42.4013 98.2974 42.5141 98.3884 42.5141C98.4795 42.5141 98.554 42.4013 98.554 42.2634C98.554 42.1256 98.4795 42.0128 98.3884 42.0128C98.2974 42.0128 98.2229 42.1256 98.2229 42.2634ZM99.9839 43.266C99.9316 43.4038 99.9609 43.5166 100.049 43.5166C100.137 43.5166 100.209 43.4038 100.209 43.266C100.209 43.1281 100.18 43.0153 100.144 43.0153C100.109 43.0153 100.036 43.1281 99.9839 43.266ZM106.914 44.6862C106.857 44.7781 106.886 44.8533 106.977 44.8533C107.068 44.8533 107.188 44.7781 107.245 44.6862C107.301 44.5943 107.272 44.5191 107.181 44.5191C107.09 44.5191 106.97 44.5943 106.914 44.6862ZM107.493 44.6961C107.493 44.7933 107.567 44.8266 107.658 44.7698C107.75 44.713 107.824 44.6334 107.824 44.5928C107.824 44.5522 107.75 44.5191 107.658 44.5191C107.567 44.5191 107.493 44.5989 107.493 44.6961ZM109.066 45.433C108.792 45.6589 108.648 45.8465 108.745 45.8498C108.918 45.8557 109.645 45.2478 109.645 45.0974C109.645 44.9691 109.582 45.0055 109.066 45.433ZM105.548 45.4147C105.343 45.5172 105.175 45.6609 105.175 45.7342C105.175 45.8953 105.777 45.5878 105.921 45.3538C105.977 45.2624 106 45.1967 105.972 45.2081C105.943 45.2192 105.753 45.3123 105.548 45.4147ZM104.348 47.9445C104.348 48.0823 104.41 48.1951 104.486 48.1951C104.562 48.1951 104.624 48.0823 104.624 47.9445C104.624 47.8066 104.562 47.6938 104.486 47.6938C104.41 47.6938 104.348 47.8066 104.348 47.9445Z" fill="#4300E0"/>
</svg>
